<mxfile host="app.diagrams.net" modified="2021-09-09T06:22:19.774Z" agent="5.0 (Windows NT 10.0; Win64; x64) AppleWebKit/537.36 (KHTML, like Gecko) Chrome/93.0.4577.63 Safari/537.36" etag="29ETEElPWbdTHcpN6TP0" version="14.9.9" type="github">
  <diagram id="R2lEEEUBdFMjLlhIrx00" name="Page-1">
    <mxGraphModel dx="652" dy="367" grid="1" gridSize="10" guides="1" tooltips="1" connect="1" arrows="1" fold="1" page="1" pageScale="1" pageWidth="850" pageHeight="1100" math="0" shadow="0" extFonts="Permanent Marker^https://fonts.googleapis.com/css?family=Permanent+Marker">
      <root>
        <mxCell id="0" />
        <mxCell id="1" parent="0" />
        <mxCell id="r4rj5SaB3hFMwN4bTIPo-2" value="Member" style="rounded=0;whiteSpace=wrap;html=1;" vertex="1" parent="1">
          <mxGeometry x="90" y="110" width="80" height="50" as="geometry" />
        </mxCell>
        <mxCell id="r4rj5SaB3hFMwN4bTIPo-9" style="edgeStyle=orthogonalEdgeStyle;rounded=0;orthogonalLoop=1;jettySize=auto;html=1;entryX=0.5;entryY=1;entryDx=0;entryDy=0;" edge="1" parent="1" source="r4rj5SaB3hFMwN4bTIPo-3" target="r4rj5SaB3hFMwN4bTIPo-2">
          <mxGeometry relative="1" as="geometry" />
        </mxCell>
        <mxCell id="r4rj5SaB3hFMwN4bTIPo-15" style="edgeStyle=orthogonalEdgeStyle;rounded=0;orthogonalLoop=1;jettySize=auto;html=1;entryX=0.5;entryY=0;entryDx=0;entryDy=0;" edge="1" parent="1" source="r4rj5SaB3hFMwN4bTIPo-3" target="r4rj5SaB3hFMwN4bTIPo-14">
          <mxGeometry relative="1" as="geometry" />
        </mxCell>
        <mxCell id="r4rj5SaB3hFMwN4bTIPo-3" value="Worry" style="rounded=0;whiteSpace=wrap;html=1;" vertex="1" parent="1">
          <mxGeometry x="90" y="240" width="80" height="50" as="geometry" />
        </mxCell>
        <mxCell id="r4rj5SaB3hFMwN4bTIPo-10" value="*" style="text;html=1;align=center;verticalAlign=middle;resizable=0;points=[];autosize=1;strokeColor=none;" vertex="1" parent="1">
          <mxGeometry x="130" y="210" width="20" height="20" as="geometry" />
        </mxCell>
        <mxCell id="r4rj5SaB3hFMwN4bTIPo-11" value="1" style="text;html=1;align=center;verticalAlign=middle;resizable=0;points=[];autosize=1;strokeColor=none;" vertex="1" parent="1">
          <mxGeometry x="130" y="160" width="20" height="20" as="geometry" />
        </mxCell>
        <mxCell id="r4rj5SaB3hFMwN4bTIPo-17" style="edgeStyle=orthogonalEdgeStyle;rounded=0;orthogonalLoop=1;jettySize=auto;html=1;entryX=1;entryY=0.5;entryDx=0;entryDy=0;" edge="1" parent="1" source="r4rj5SaB3hFMwN4bTIPo-13" target="r4rj5SaB3hFMwN4bTIPo-3">
          <mxGeometry relative="1" as="geometry" />
        </mxCell>
        <mxCell id="r4rj5SaB3hFMwN4bTIPo-13" value="Solution" style="rounded=0;whiteSpace=wrap;html=1;" vertex="1" parent="1">
          <mxGeometry x="240" y="240" width="80" height="50" as="geometry" />
        </mxCell>
        <mxCell id="r4rj5SaB3hFMwN4bTIPo-16" style="edgeStyle=orthogonalEdgeStyle;rounded=0;orthogonalLoop=1;jettySize=auto;html=1;" edge="1" parent="1" source="r4rj5SaB3hFMwN4bTIPo-14" target="r4rj5SaB3hFMwN4bTIPo-3">
          <mxGeometry relative="1" as="geometry" />
        </mxCell>
        <mxCell id="r4rj5SaB3hFMwN4bTIPo-14" value="Category" style="rounded=0;whiteSpace=wrap;html=1;" vertex="1" parent="1">
          <mxGeometry x="90" y="340" width="80" height="50" as="geometry" />
        </mxCell>
        <mxCell id="r4rj5SaB3hFMwN4bTIPo-18" value="1" style="text;html=1;align=center;verticalAlign=middle;resizable=0;points=[];autosize=1;strokeColor=none;" vertex="1" parent="1">
          <mxGeometry x="170" y="250" width="20" height="20" as="geometry" />
        </mxCell>
        <mxCell id="r4rj5SaB3hFMwN4bTIPo-19" value="*" style="text;html=1;align=center;verticalAlign=middle;resizable=0;points=[];autosize=1;strokeColor=none;" vertex="1" parent="1">
          <mxGeometry x="220" y="250" width="20" height="20" as="geometry" />
        </mxCell>
        <mxCell id="r4rj5SaB3hFMwN4bTIPo-25" value="" style="edgeStyle=orthogonalEdgeStyle;rounded=0;orthogonalLoop=1;jettySize=auto;html=1;" edge="1" parent="1" source="r4rj5SaB3hFMwN4bTIPo-22" target="r4rj5SaB3hFMwN4bTIPo-13">
          <mxGeometry relative="1" as="geometry" />
        </mxCell>
        <mxCell id="r4rj5SaB3hFMwN4bTIPo-22" value="Favour" style="rounded=0;whiteSpace=wrap;html=1;" vertex="1" parent="1">
          <mxGeometry x="400" y="240" width="80" height="50" as="geometry" />
        </mxCell>
        <mxCell id="r4rj5SaB3hFMwN4bTIPo-23" value="*" style="text;html=1;align=center;verticalAlign=middle;resizable=0;points=[];autosize=1;strokeColor=none;" vertex="1" parent="1">
          <mxGeometry x="130" y="290" width="20" height="20" as="geometry" />
        </mxCell>
        <mxCell id="r4rj5SaB3hFMwN4bTIPo-24" value="*" style="text;html=1;align=center;verticalAlign=middle;resizable=0;points=[];autosize=1;strokeColor=none;" vertex="1" parent="1">
          <mxGeometry x="110" y="320" width="20" height="20" as="geometry" />
        </mxCell>
        <mxCell id="r4rj5SaB3hFMwN4bTIPo-27" value="1" style="text;html=1;align=center;verticalAlign=middle;resizable=0;points=[];autosize=1;strokeColor=none;" vertex="1" parent="1">
          <mxGeometry x="320" y="250" width="20" height="20" as="geometry" />
        </mxCell>
        <mxCell id="r4rj5SaB3hFMwN4bTIPo-28" value="*" style="text;html=1;align=center;verticalAlign=middle;resizable=0;points=[];autosize=1;strokeColor=none;" vertex="1" parent="1">
          <mxGeometry x="380" y="250" width="20" height="20" as="geometry" />
        </mxCell>
        <mxCell id="r4rj5SaB3hFMwN4bTIPo-29" value="Domain Model" style="text;html=1;align=center;verticalAlign=middle;resizable=0;points=[];autosize=1;strokeColor=#d79b00;fillColor=#ffe6cc;" vertex="1" parent="1">
          <mxGeometry x="25" y="50" width="90" height="20" as="geometry" />
        </mxCell>
        <mxCell id="r4rj5SaB3hFMwN4bTIPo-30" value="Entity 분석" style="text;html=1;align=center;verticalAlign=middle;resizable=0;points=[];autosize=1;strokeColor=#d6b656;fillColor=#fff2cc;" vertex="1" parent="1">
          <mxGeometry x="35" y="420" width="70" height="20" as="geometry" />
        </mxCell>
        <mxCell id="r4rj5SaB3hFMwN4bTIPo-31" value="Meber" style="swimlane;fontStyle=0;childLayout=stackLayout;horizontal=1;startSize=26;horizontalStack=0;resizeParent=1;resizeParentMax=0;resizeLast=0;collapsible=1;marginBottom=0;" vertex="1" parent="1">
          <mxGeometry x="60" y="450" width="140" height="156" as="geometry" />
        </mxCell>
        <mxCell id="r4rj5SaB3hFMwN4bTIPo-32" value="memberId : String" style="text;strokeColor=none;fillColor=none;align=left;verticalAlign=top;spacingLeft=4;spacingRight=4;overflow=hidden;rotatable=0;points=[[0,0.5],[1,0.5]];portConstraint=eastwest;" vertex="1" parent="r4rj5SaB3hFMwN4bTIPo-31">
          <mxGeometry y="26" width="140" height="26" as="geometry" />
        </mxCell>
        <mxCell id="r4rj5SaB3hFMwN4bTIPo-34" value="name : String" style="text;strokeColor=none;fillColor=none;align=left;verticalAlign=top;spacingLeft=4;spacingRight=4;overflow=hidden;rotatable=0;points=[[0,0.5],[1,0.5]];portConstraint=eastwest;" vertex="1" parent="r4rj5SaB3hFMwN4bTIPo-31">
          <mxGeometry y="52" width="140" height="26" as="geometry" />
        </mxCell>
        <mxCell id="r4rj5SaB3hFMwN4bTIPo-37" value="password" style="text;strokeColor=none;fillColor=none;align=left;verticalAlign=top;spacingLeft=4;spacingRight=4;overflow=hidden;rotatable=0;points=[[0,0.5],[1,0.5]];portConstraint=eastwest;" vertex="1" parent="r4rj5SaB3hFMwN4bTIPo-31">
          <mxGeometry y="78" width="140" height="26" as="geometry" />
        </mxCell>
        <mxCell id="r4rj5SaB3hFMwN4bTIPo-38" value="status: GenerationStatus" style="text;strokeColor=none;fillColor=none;align=left;verticalAlign=top;spacingLeft=4;spacingRight=4;overflow=hidden;rotatable=0;points=[[0,0.5],[1,0.5]];portConstraint=eastwest;" vertex="1" parent="r4rj5SaB3hFMwN4bTIPo-31">
          <mxGeometry y="104" width="140" height="26" as="geometry" />
        </mxCell>
        <mxCell id="r4rj5SaB3hFMwN4bTIPo-39" value="createDate: Date" style="text;strokeColor=none;fillColor=none;align=left;verticalAlign=top;spacingLeft=4;spacingRight=4;overflow=hidden;rotatable=0;points=[[0,0.5],[1,0.5]];portConstraint=eastwest;" vertex="1" parent="r4rj5SaB3hFMwN4bTIPo-31">
          <mxGeometry y="130" width="140" height="26" as="geometry" />
        </mxCell>
        <mxCell id="r4rj5SaB3hFMwN4bTIPo-40" value="Worry" style="swimlane;fontStyle=0;childLayout=stackLayout;horizontal=1;startSize=26;horizontalStack=0;resizeParent=1;resizeParentMax=0;resizeLast=0;collapsible=1;marginBottom=0;" vertex="1" parent="1">
          <mxGeometry x="60" y="670" width="140" height="156" as="geometry" />
        </mxCell>
        <mxCell id="r4rj5SaB3hFMwN4bTIPo-41" value="worryId : Long" style="text;strokeColor=none;fillColor=none;align=left;verticalAlign=top;spacingLeft=4;spacingRight=4;overflow=hidden;rotatable=0;points=[[0,0.5],[1,0.5]];portConstraint=eastwest;" vertex="1" parent="r4rj5SaB3hFMwN4bTIPo-40">
          <mxGeometry y="26" width="140" height="26" as="geometry" />
        </mxCell>
        <mxCell id="r4rj5SaB3hFMwN4bTIPo-42" value="name : String" style="text;strokeColor=none;fillColor=none;align=left;verticalAlign=top;spacingLeft=4;spacingRight=4;overflow=hidden;rotatable=0;points=[[0,0.5],[1,0.5]];portConstraint=eastwest;" vertex="1" parent="r4rj5SaB3hFMwN4bTIPo-40">
          <mxGeometry y="52" width="140" height="26" as="geometry" />
        </mxCell>
        <mxCell id="r4rj5SaB3hFMwN4bTIPo-43" value="password" style="text;strokeColor=none;fillColor=none;align=left;verticalAlign=top;spacingLeft=4;spacingRight=4;overflow=hidden;rotatable=0;points=[[0,0.5],[1,0.5]];portConstraint=eastwest;" vertex="1" parent="r4rj5SaB3hFMwN4bTIPo-40">
          <mxGeometry y="78" width="140" height="26" as="geometry" />
        </mxCell>
        <mxCell id="r4rj5SaB3hFMwN4bTIPo-44" value="status: GenerationStatus" style="text;strokeColor=none;fillColor=none;align=left;verticalAlign=top;spacingLeft=4;spacingRight=4;overflow=hidden;rotatable=0;points=[[0,0.5],[1,0.5]];portConstraint=eastwest;" vertex="1" parent="r4rj5SaB3hFMwN4bTIPo-40">
          <mxGeometry y="104" width="140" height="26" as="geometry" />
        </mxCell>
        <mxCell id="r4rj5SaB3hFMwN4bTIPo-45" value="createDate: Date" style="text;strokeColor=none;fillColor=none;align=left;verticalAlign=top;spacingLeft=4;spacingRight=4;overflow=hidden;rotatable=0;points=[[0,0.5],[1,0.5]];portConstraint=eastwest;" vertex="1" parent="r4rj5SaB3hFMwN4bTIPo-40">
          <mxGeometry y="130" width="140" height="26" as="geometry" />
        </mxCell>
      </root>
    </mxGraphModel>
  </diagram>
</mxfile>
